<svg version="1.1" id="Layer_1" xmlns="http://www.w3.org/2000/svg" xmlns:xlink="http://www.w3.org/1999/xlink" x="0px" y="0px"
	 width="100%" viewBox="0 0 1920 1080" enable-background="new 0 0 1920 1080" xml:space="preserve">
<path fill="#BC4E9C" opacity="1.000000" stroke="none" 
	d="
M552.000000,1.000000 
	C615.020874,1.000000 678.041809,1.000000 741.529602,1.465010 
	C741.997681,361.620026 741.998840,721.309998 742.000000,1081.000000 
	C678.645752,1081.000000 615.291565,1081.000000 551.559143,1080.592896 
	C551.456360,1077.548096 551.972778,1074.910400 551.973022,1072.272705 
	C552.006592,715.181824 552.002380,358.090912 552.000000,1.000000 
z"/>
<path fill="#7B56CD" opacity="1.000000" stroke="none" 
	d="
M1277.000000,1.000000 
	C1318.687622,1.000000 1360.375122,1.000000 1402.490234,1.418750 
	C1402.610229,4.975555 1402.033569,8.113581 1402.033203,11.251676 
	C1401.994385,367.834442 1401.998413,724.417236 1402.000000,1081.000000 
	C1360.645752,1081.000000 1319.291504,1081.000000 1277.468628,1080.538818 
	C1277.000000,720.385010 1277.000000,360.692505 1277.000000,1.000000 
z"/>
<path fill="#8E54BF" opacity="1.000000" stroke="none" 
	d="
M1212.000000,1081.000000 
	C1170.645752,1081.000000 1129.291504,1081.000000 1087.468628,1080.538818 
	C1087.000000,720.385010 1087.000000,360.692505 1087.000000,1.000000 
	C1128.354248,1.000000 1169.708496,1.000000 1211.530029,1.461253 
	C1211.998291,361.614990 1211.999146,721.307495 1212.000000,1081.000000 
z"/>
<path fill="#C94C92" opacity="1.000000" stroke="none" 
	d="
M551.531372,1.000000 
	C552.002380,358.090912 552.006592,715.181824 551.973022,1072.272705 
	C551.972778,1074.910400 551.456360,1077.548096 551.090454,1080.592896 
	C510.312439,1081.000000 469.624878,1081.000000 428.470215,1080.538818 
	C428.002075,720.385010 428.001038,360.692505 428.000000,1.000000 
	C469.020905,1.000000 510.041779,1.000000 551.531372,1.000000 
z"/>
<path fill="#DC4A84" opacity="1.000000" stroke="none" 
	d="
M364.000000,1081.000000 
	C323.312439,1081.000000 282.624878,1081.000000 241.470337,1080.536133 
	C241.002228,720.381531 241.001114,360.690765 241.000000,1.000000 
	C281.687561,1.000000 322.375122,1.000000 363.531342,1.461255 
	C364.000000,361.615021 364.000000,721.307495 364.000000,1081.000000 
z"/>
<path fill="#9B52B5" opacity="1.000000" stroke="none" 
	d="
M904.000000,1.000000 
	C941.354248,1.000000 978.708435,1.000000 1016.531372,1.461255 
	C1017.000000,361.615021 1017.000000,721.307495 1017.000000,1081.000000 
	C979.645752,1081.000000 942.291565,1081.000000 904.469666,1080.538818 
	C904.001343,720.385010 904.000671,360.692505 904.000000,1.000000 
z"/>
<path fill="#F54770" opacity="1.000000" stroke="none" 
	d="
M105.000000,1081.000000 
	C70.344902,1081.000000 35.689804,1081.000000 1.052351,1081.000000 
	C1.052351,721.000000 1.052351,361.000000 1.052351,1.000000 
	C35.426460,1.000000 69.748215,1.000000 104.534988,1.465013 
	C105.000000,361.620026 105.000000,721.309998 105.000000,1081.000000 
z"/>
<path fill="#6659DD" opacity="1.000000" stroke="none" 
	d="
M1574.000000,1081.000000 
	C1543.312378,1081.000000 1512.624878,1081.000000 1481.479736,1080.599365 
	C1481.163452,1075.419800 1481.395630,1070.641357 1481.426514,1065.861694 
	C1481.488525,1056.300415 1481.448242,1046.738525 1481.434937,1037.176880 
	C1481.422119,1027.945068 1481.387817,1018.713318 1481.367065,1009.481506 
	C1481.346436,1000.246094 1481.327026,991.010681 1481.314087,981.775269 
	C1481.300659,972.217224 1481.292480,962.659241 1481.288452,953.101196 
	C1481.284668,944.028931 1481.286987,934.956604 1481.290771,925.884338 
	C1481.294678,916.326355 1481.298096,906.768311 1481.311401,897.210327 
	C1481.324341,887.974915 1481.348877,878.739502 1481.369629,869.504089 
	C1481.390381,860.272278 1481.420044,851.040527 1481.432983,841.808716 
	C1481.446289,832.247070 1481.458008,822.685425 1481.444702,813.123779 
	C1481.432007,803.892029 1481.364868,794.660217 1481.361328,785.428467 
	C1481.357666,776.029907 1481.417725,766.631409 1481.421631,757.232849 
	C1481.425537,748.001099 1481.397827,738.769287 1481.376953,729.537537 
	C1481.356201,720.302124 1481.316772,711.066711 1481.304077,701.831299 
	C1481.290771,692.273254 1481.288574,682.715271 1481.301880,673.157227 
	C1481.314697,663.921814 1481.358276,654.686401 1481.379150,645.450989 
	C1481.399902,636.219238 1481.423462,626.987427 1481.419556,617.755676 
	C1481.415527,608.357117 1481.359619,598.958618 1481.363403,589.560059 
	C1481.366943,580.328247 1481.429932,571.096497 1481.442627,561.864685 
	C1481.455811,552.303040 1481.447998,542.741394 1481.434692,533.179749 
	C1481.421875,523.947998 1481.388550,514.716187 1481.367798,505.484436 
	C1481.346924,496.249054 1481.326538,487.013702 1481.313599,477.778320 
	C1481.300415,468.220337 1481.292969,458.662323 1481.288940,449.104340 
	C1481.285034,440.032104 1481.286499,430.959839 1481.290161,421.887604 
	C1481.294067,412.329620 1481.298584,402.771667 1481.311890,393.213684 
	C1481.324829,383.978302 1481.348145,374.742950 1481.369019,365.507568 
	C1481.389893,356.275848 1481.420410,347.044098 1481.433228,337.812378 
	C1481.446533,328.250763 1481.457275,318.689087 1481.443970,309.127502 
	C1481.431274,299.895721 1481.365723,290.664032 1481.362183,281.432281 
	C1481.358643,272.033783 1481.416870,262.635284 1481.420898,253.236801 
	C1481.424683,244.005020 1481.398560,234.773209 1481.377808,225.541443 
	C1481.357178,216.306000 1481.316284,207.070618 1481.303467,197.835175 
	C1481.290161,188.277161 1481.289185,178.719086 1481.302368,169.161072 
	C1481.315063,159.925629 1481.357544,150.690247 1481.378418,141.454803 
	C1481.399170,132.223068 1481.423950,122.991310 1481.420166,113.759575 
	C1481.416138,104.361107 1481.358887,94.962646 1481.362671,85.564194 
	C1481.366211,76.332504 1481.430420,67.100845 1481.443237,57.869141 
	C1481.456421,48.307545 1481.494873,38.745472 1481.420288,29.184406 
	C1481.346924,19.789083 1481.145386,10.394761 1481.000000,1.000000 
	C1511.687622,1.000000 1542.375122,1.000000 1573.531372,1.465013 
	C1574.000000,361.620026 1574.000000,721.309998 1574.000000,1081.000000 
z"/>
<path fill="#5D5AE4" opacity="1.000000" stroke="none" 
	d="
M1574.464966,1081.000000 
	C1574.000000,721.309998 1574.000000,361.620026 1574.000000,1.465013 
	C1604.356689,1.000000 1634.713379,1.000000 1665.535034,1.465013 
	C1666.000000,361.620026 1666.000000,721.309998 1666.000000,1081.000000 
	C1635.643311,1081.000000 1605.286621,1081.000000 1574.464966,1081.000000 
z"/>
<path fill="#545BEB" opacity="1.000000" stroke="none" 
	d="
M1666.464966,1081.000000 
	C1666.000000,721.309998 1666.000000,361.620026 1666.000000,1.465013 
	C1695.356689,1.000000 1724.713379,1.000000 1754.538574,1.420879 
	C1755.193970,5.961223 1755.509155,10.079677 1755.541626,14.200354 
	C1755.616943,23.761026 1755.540894,33.322792 1755.554077,42.884075 
	C1755.566772,52.115463 1755.636230,61.346802 1755.639771,70.578171 
	C1755.643555,79.976303 1755.581543,89.374451 1755.577515,98.772598 
	C1755.573486,108.003952 1755.603149,117.235329 1755.624023,126.466682 
	C1755.645020,135.701691 1755.682983,144.936691 1755.695679,154.171722 
	C1755.708740,163.729294 1755.711670,173.286926 1755.698730,182.844498 
	C1755.686157,192.079529 1755.641846,201.314529 1755.620972,210.549561 
	C1755.600098,219.780899 1755.576660,229.012283 1755.580566,238.243637 
	C1755.584595,247.641800 1755.640747,257.039948 1755.636963,266.438110 
	C1755.633301,275.669556 1755.569580,284.900940 1755.556885,294.132416 
	C1755.543701,303.693665 1755.552734,313.254974 1755.566040,322.816254 
	C1755.578735,332.047668 1755.610596,341.279114 1755.631470,350.510529 
	C1755.652466,359.745575 1755.674805,368.980652 1755.687744,378.215698 
	C1755.701050,387.773346 1755.706055,397.331024 1755.709961,406.888672 
	C1755.713745,415.960602 1755.714966,425.032532 1755.711182,434.104462 
	C1755.707153,443.662140 1755.699707,453.219788 1755.686401,462.777466 
	C1755.673584,472.012512 1755.653442,481.247589 1755.632568,490.482635 
	C1755.611694,499.714081 1755.577637,508.945496 1755.564819,518.176941 
	C1755.551636,527.738281 1755.544800,537.299561 1755.557983,546.860901 
	C1755.570801,556.092346 1755.631958,565.323853 1755.635620,574.555298 
	C1755.639404,583.953491 1755.585327,593.351746 1755.581421,602.749939 
	C1755.577393,611.981384 1755.599121,621.212891 1755.619873,630.444336 
	C1755.640747,639.679443 1755.686646,648.914490 1755.699463,658.149597 
	C1755.712646,667.707275 1755.707886,677.265015 1755.694580,686.822693 
	C1755.681763,696.057800 1755.645508,705.292908 1755.624634,714.528015 
	C1755.603882,723.759460 1755.585449,732.990906 1755.572632,742.222351 
	C1755.559326,751.783691 1755.550415,761.345032 1755.546265,770.906372 
	C1755.542358,779.974731 1755.520874,789.043152 1755.555908,798.111389 
	C1755.591553,807.345642 1755.719238,816.579468 1755.746948,825.813721 
	C1755.776245,835.535706 1755.735352,845.257874 1755.724731,854.979980 
	C1755.714844,864.051697 1755.697754,873.123352 1755.694946,882.195068 
	C1755.692017,891.752747 1755.715576,901.310425 1755.702393,910.868103 
	C1755.689697,920.103210 1755.637451,929.338318 1755.616577,938.573425 
	C1755.595703,947.804871 1755.580566,957.036377 1755.584595,966.267822 
	C1755.588623,975.666016 1755.636353,985.064270 1755.632568,994.462463 
	C1755.628784,1003.693909 1755.573730,1012.925415 1755.561035,1022.156860 
	C1755.547852,1031.718140 1755.501343,1041.279907 1755.574463,1050.840576 
	C1755.651367,1060.894165 1755.852905,1070.946899 1756.000000,1081.000000 
	C1726.309937,1081.000000 1696.619995,1081.000000 1666.464966,1081.000000 
z"/>
<path fill="#4B5CF2" opacity="1.000000" stroke="none" 
	d="
M1756.468628,1081.000000 
	C1755.852905,1070.946899 1755.651367,1060.894165 1755.574463,1050.840576 
	C1755.501343,1041.279907 1755.547852,1031.718140 1755.561035,1022.156860 
	C1755.573730,1012.925415 1755.628784,1003.693909 1755.632568,994.462463 
	C1755.636353,985.064270 1755.588623,975.666016 1755.584595,966.267822 
	C1755.580566,957.036377 1755.595703,947.804871 1755.616577,938.573425 
	C1755.637451,929.338318 1755.689697,920.103210 1755.702393,910.868103 
	C1755.715576,901.310425 1755.692017,891.752747 1755.694946,882.195068 
	C1755.697754,873.123352 1755.714844,864.051697 1755.724731,854.979980 
	C1755.735352,845.257874 1755.776245,835.535706 1755.746948,825.813721 
	C1755.719238,816.579468 1755.591553,807.345642 1755.555908,798.111389 
	C1755.520874,789.043152 1755.542358,779.974731 1755.546265,770.906372 
	C1755.550415,761.345032 1755.559326,751.783691 1755.572632,742.222351 
	C1755.585449,732.990906 1755.603882,723.759460 1755.624634,714.528015 
	C1755.645508,705.292908 1755.681763,696.057800 1755.694580,686.822693 
	C1755.707886,677.265015 1755.712646,667.707275 1755.699463,658.149597 
	C1755.686646,648.914490 1755.640747,639.679443 1755.619873,630.444336 
	C1755.599121,621.212891 1755.577393,611.981384 1755.581421,602.749939 
	C1755.585327,593.351746 1755.639404,583.953491 1755.635620,574.555298 
	C1755.631958,565.323853 1755.570801,556.092346 1755.557983,546.860901 
	C1755.544800,537.299561 1755.551636,527.738281 1755.564819,518.176941 
	C1755.577637,508.945496 1755.611694,499.714081 1755.632568,490.482635 
	C1755.653442,481.247589 1755.673584,472.012512 1755.686401,462.777466 
	C1755.699707,453.219788 1755.707153,443.662140 1755.711182,434.104462 
	C1755.714966,425.032532 1755.713745,415.960602 1755.709961,406.888672 
	C1755.706055,397.331024 1755.701050,387.773346 1755.687744,378.215698 
	C1755.674805,368.980652 1755.652466,359.745575 1755.631470,350.510529 
	C1755.610596,341.279114 1755.578735,332.047668 1755.566040,322.816254 
	C1755.552734,313.254974 1755.543701,303.693665 1755.556885,294.132416 
	C1755.569580,284.900940 1755.633301,275.669556 1755.636963,266.438110 
	C1755.640747,257.039948 1755.584595,247.641800 1755.580566,238.243637 
	C1755.576660,229.012283 1755.600098,219.780899 1755.620972,210.549561 
	C1755.641846,201.314529 1755.686157,192.079529 1755.698730,182.844498 
	C1755.711670,173.286926 1755.708740,163.729294 1755.695679,154.171722 
	C1755.682983,144.936691 1755.645020,135.701691 1755.624023,126.466682 
	C1755.603149,117.235329 1755.573486,108.003952 1755.577515,98.772598 
	C1755.581543,89.374451 1755.643555,79.976303 1755.639771,70.578171 
	C1755.636230,61.346802 1755.566772,52.115463 1755.554077,42.884075 
	C1755.540894,33.322792 1755.616943,23.761026 1755.541626,14.200354 
	C1755.509155,10.079677 1755.193970,5.961223 1755.003662,1.420879 
	C1782.687622,1.000000 1810.375122,1.000000 1838.531372,1.461255 
	C1839.000000,361.615021 1839.000000,721.307495 1839.000000,1081.000000 
	C1811.645752,1081.000000 1784.291504,1081.000000 1756.468628,1081.000000 
z"/>
<path fill="#435DF8" opacity="1.000000" stroke="none" 
	d="
M1839.461182,1081.000000 
	C1839.000000,721.307495 1839.000000,361.615021 1839.000000,1.461255 
	C1866.324097,1.000000 1893.648071,1.000000 1920.947510,1.000000 
	C1920.947510,361.000000 1920.947510,721.000000 1920.947510,1081.000000 
	C1893.904053,1081.000000 1866.913330,1081.000000 1839.461182,1081.000000 
z"/>
<path fill="#AF50A5" opacity="1.000000" stroke="none" 
	d="
M742.465027,1081.000000 
	C741.998840,721.309998 741.997681,361.620026 741.998291,1.465010 
	C768.690002,1.000000 795.379944,1.000000 822.534973,1.461255 
	C823.000000,361.615021 823.000000,721.307495 823.000000,1081.000000 
	C796.309998,1081.000000 769.620056,1081.000000 742.465027,1081.000000 
z"/>
<path fill="#A751AC" opacity="1.000000" stroke="none" 
	d="
M823.461243,1081.000000 
	C823.000000,721.307495 823.000000,361.615021 823.000000,1.461255 
	C849.692505,1.000000 876.385010,1.000000 903.538757,1.000000 
	C904.000671,360.692505 904.001343,720.385010 904.000977,1080.538818 
	C877.307495,1081.000000 850.614990,1081.000000 823.461243,1081.000000 
z"/>
<path fill="#6F58D7" opacity="1.000000" stroke="none" 
	d="
M1480.531372,1.000000 
	C1481.145386,10.394761 1481.346924,19.789083 1481.420288,29.184406 
	C1481.494873,38.745472 1481.456421,48.307545 1481.443237,57.869141 
	C1481.430420,67.100845 1481.366211,76.332504 1481.362671,85.564194 
	C1481.358887,94.962646 1481.416138,104.361107 1481.420166,113.759575 
	C1481.423950,122.991310 1481.399170,132.223068 1481.378418,141.454803 
	C1481.357544,150.690247 1481.315063,159.925629 1481.302368,169.161072 
	C1481.289185,178.719086 1481.290161,188.277161 1481.303467,197.835175 
	C1481.316284,207.070618 1481.357178,216.306000 1481.377808,225.541443 
	C1481.398560,234.773209 1481.424683,244.005020 1481.420898,253.236801 
	C1481.416870,262.635284 1481.358643,272.033783 1481.362183,281.432281 
	C1481.365723,290.664032 1481.431274,299.895721 1481.443970,309.127502 
	C1481.457275,318.689087 1481.446533,328.250763 1481.433228,337.812378 
	C1481.420410,347.044098 1481.389893,356.275848 1481.369019,365.507568 
	C1481.348145,374.742950 1481.324829,383.978302 1481.311890,393.213684 
	C1481.298584,402.771667 1481.294067,412.329620 1481.290161,421.887604 
	C1481.286499,430.959839 1481.285034,440.032104 1481.288940,449.104340 
	C1481.292969,458.662323 1481.300415,468.220337 1481.313599,477.778320 
	C1481.326538,487.013702 1481.346924,496.249054 1481.367798,505.484436 
	C1481.388550,514.716187 1481.421875,523.947998 1481.434692,533.179749 
	C1481.447998,542.741394 1481.455811,552.303040 1481.442627,561.864685 
	C1481.429932,571.096497 1481.366943,580.328247 1481.363403,589.560059 
	C1481.359619,598.958618 1481.415527,608.357117 1481.419556,617.755676 
	C1481.423462,626.987427 1481.399902,636.219238 1481.379150,645.450989 
	C1481.358276,654.686401 1481.314697,663.921814 1481.301880,673.157227 
	C1481.288574,682.715271 1481.290771,692.273254 1481.304077,701.831299 
	C1481.316772,711.066711 1481.356201,720.302124 1481.376953,729.537537 
	C1481.397827,738.769287 1481.425537,748.001099 1481.421631,757.232849 
	C1481.417725,766.631409 1481.357666,776.029907 1481.361328,785.428467 
	C1481.364868,794.660217 1481.432007,803.892029 1481.444702,813.123779 
	C1481.458008,822.685425 1481.446289,832.247070 1481.432983,841.808716 
	C1481.420044,851.040527 1481.390381,860.272278 1481.369629,869.504089 
	C1481.348877,878.739502 1481.324341,887.974915 1481.311401,897.210327 
	C1481.298096,906.768311 1481.294678,916.326355 1481.290771,925.884338 
	C1481.286987,934.956604 1481.284668,944.028931 1481.288452,953.101196 
	C1481.292480,962.659241 1481.300659,972.217224 1481.314087,981.775269 
	C1481.327026,991.010681 1481.346436,1000.246094 1481.367065,1009.481506 
	C1481.387817,1018.713318 1481.422119,1027.945068 1481.434937,1037.176880 
	C1481.448242,1046.738525 1481.488525,1056.300415 1481.426514,1065.861694 
	C1481.395630,1070.641357 1481.163452,1075.419800 1481.011108,1080.599365 
	C1454.979126,1081.000000 1428.958130,1081.000000 1402.468628,1081.000000 
	C1401.998413,724.417236 1401.994385,367.834442 1402.033203,11.251676 
	C1402.033569,8.113581 1402.610229,4.975555 1402.958984,1.418750 
	C1428.687622,1.000000 1454.375122,1.000000 1480.531372,1.000000 
z"/>
<path fill="#EE4875" opacity="1.000000" stroke="none" 
	d="
M105.465012,1081.000000 
	C105.000000,721.309998 105.000000,361.620026 105.000000,1.465013 
	C128.356659,1.000000 151.713318,1.000000 175.457916,1.400493 
	C175.563889,4.934630 175.035309,8.068248 175.034988,11.201921 
	C174.997849,367.801270 175.000000,724.400635 175.000000,1081.000000 
	C151.976669,1081.000000 128.953354,1081.000000 105.465012,1081.000000 
z"/>
<path fill="#9553BA" opacity="1.000000" stroke="none" 
	d="
M1017.461243,1081.000000 
	C1017.000000,721.307495 1017.000000,361.615021 1017.000000,1.461255 
	C1040.025879,1.000000 1063.051636,1.000000 1086.538818,1.000000 
	C1087.000000,360.692505 1087.000000,720.385010 1087.000000,1080.538818 
	C1063.974121,1081.000000 1040.948364,1081.000000 1017.461243,1081.000000 
z"/>
<path fill="#E7497B" opacity="1.000000" stroke="none" 
	d="
M175.463882,1081.000000 
	C175.000000,724.400635 174.997849,367.801270 175.034988,11.201921 
	C175.035309,8.068248 175.563889,4.934630 175.922913,1.400493 
	C197.357407,1.000000 218.714828,1.000000 240.536118,1.000000 
	C241.001114,360.690765 241.002228,720.381531 241.001678,1080.536133 
	C219.309250,1081.000000 197.618515,1081.000000 175.463882,1081.000000 
z"/>
<path fill="#8256C8" opacity="1.000000" stroke="none" 
	d="
M1212.461182,1081.000000 
	C1211.999146,721.307495 1211.998291,361.614990 1211.998779,1.461253 
	C1233.359131,1.000000 1254.718384,1.000000 1276.538818,1.000000 
	C1277.000000,360.692505 1277.000000,720.385010 1277.000000,1080.538818 
	C1255.640869,1081.000000 1234.281616,1081.000000 1212.461182,1081.000000 
z"/>
<path fill="#D54B89" opacity="1.000000" stroke="none" 
	d="
M364.461243,1081.000000 
	C364.000000,721.307495 364.000000,361.615021 364.000000,1.461255 
	C385.025818,1.000000 406.051666,1.000000 427.538757,1.000000 
	C428.001038,360.692505 428.002075,720.385010 428.001556,1080.538818 
	C406.974182,1081.000000 385.948334,1081.000000 364.461243,1081.000000 
z"/>
</svg>